<?xml version="1.0" encoding="utf-8"?>
<svg xmlns="http://www.w3.org/2000/svg" xmlns:xlink="http://www.w3.org/1999/xlink" width="428.699453pt" height="244.190312pt" viewBox="0 0 428.699453 244.190312" version="1.1" font-family="sans-serif">
<defs>
<style type="text/css">*{stroke-linejoin: round; stroke-linecap: butt}</style>
</defs>
<path d="M 0 244 L 429 244 L 429 0 L 0 0 z" style="fill:#ffffff"/>
<path d="M 33 221 L 390 221 L 390 21 L 33 21 z" style="fill:#ffffff"/>
<path d="M 49 221 L 71 221 L 71 31 L 49 31 z" style="fill:#1f6f8b"/>
<path d="M 77 221 L 99 221 L 99 153 L 77 153 z" style="fill:#1f6f8b"/>
<path d="M 104 221 L 126 221 L 126 161 L 104 161 z" style="fill:#1f6f8b"/>
<path d="M 132 221 L 154 221 L 154 193 L 132 193 z" style="fill:#1f6f8b"/>
<path d="M 159 221 L 181 221 L 181 195 L 159 195 z" style="fill:#1f6f8b"/>
<path d="M 187 221 L 209 221 L 209 201 L 187 201 z" style="fill:#1f6f8b"/>
<path d="M 214 221 L 236 221 L 236 201 L 214 201 z" style="fill:#1f6f8b"/>
<path d="M 242 221 L 264 221 L 264 210 L 242 210 z" style="fill:#1f6f8b"/>
<path d="M 269 221 L 291 221 L 291 210 L 269 210 z" style="fill:#1f6f8b"/>
<path d="M 297 221 L 319 221 L 319 211 L 297 211 z" style="fill:#1f6f8b"/>
<path d="M 324 221 L 346 221 L 346 211 L 324 211 z" style="fill:#1f6f8b"/>
<path d="M 352 221 L 374 221 L 374 212 L 352 212 z" style="fill:#1f6f8b"/>
<defs>
<path id="m83e1209875" d="M 0 0 L 0 4" style="stroke:#000000;stroke-width:0.8"/>
</defs>
<use xlink:href="#m83e1209875" x="60" y="221" style="stroke:#000000;stroke-width:0.8"/>
<text style="font-size:9px; text-anchor:middle" x="60" y="235">SP</text>
<use xlink:href="#m83e1209875" x="88" y="221" style="stroke:#000000;stroke-width:0.8"/>
<text style="font-size:9px; text-anchor:middle" x="88" y="235">RJ</text>
<use xlink:href="#m83e1209875" x="115" y="221" style="stroke:#000000;stroke-width:0.8"/>
<text style="font-size:9px; text-anchor:middle" x="115" y="235">MG</text>
<use xlink:href="#m83e1209875" x="143" y="221" style="stroke:#000000;stroke-width:0.8"/>
<text style="font-size:9px; text-anchor:middle" x="143" y="235">RS</text>
<use xlink:href="#m83e1209875" x="170" y="221" style="stroke:#000000;stroke-width:0.8"/>
<text style="font-size:9px; text-anchor:middle" x="170" y="235">PR</text>
<use xlink:href="#m83e1209875" x="198" y="221" style="stroke:#000000;stroke-width:0.8"/>
<text style="font-size:9px; text-anchor:middle" x="198" y="235">SC</text>
<use xlink:href="#m83e1209875" x="225" y="221" style="stroke:#000000;stroke-width:0.8"/>
<text style="font-size:9px; text-anchor:middle" x="225" y="235">BA</text>
<use xlink:href="#m83e1209875" x="253" y="221" style="stroke:#000000;stroke-width:0.8"/>
<text style="font-size:9px; text-anchor:middle" x="253" y="235">DF</text>
<use xlink:href="#m83e1209875" x="280" y="221" style="stroke:#000000;stroke-width:0.8"/>
<text style="font-size:9px; text-anchor:middle" x="280" y="235">GO</text>
<use xlink:href="#m83e1209875" x="308" y="221" style="stroke:#000000;stroke-width:0.8"/>
<text style="font-size:9px; text-anchor:middle" x="308" y="235">ES</text>
<use xlink:href="#m83e1209875" x="335" y="221" style="stroke:#000000;stroke-width:0.8"/>
<text style="font-size:9px; text-anchor:middle" x="335" y="235">PE</text>
<use xlink:href="#m83e1209875" x="363" y="221" style="stroke:#000000;stroke-width:0.8"/>
<text style="font-size:9px; text-anchor:middle" x="363" y="235">CE</text>
<defs>
<path id="maf99ecaed9" d="M 0 0 L -4 0" style="stroke:#000000;stroke-width:0.8"/>
</defs>
<use xlink:href="#maf99ecaed9" x="33" y="221" style="stroke:#000000;stroke-width:0.8"/>
<text style="font-size:9px; text-anchor:end" x="26" y="224">0</text>
<use xlink:href="#maf99ecaed9" x="33" y="189" style="stroke:#000000;stroke-width:0.8"/>
<text style="font-size:9px; text-anchor:end" x="26" y="192">1</text>
<use xlink:href="#maf99ecaed9" x="33" y="156" style="stroke:#000000;stroke-width:0.8"/>
<text style="font-size:9px; text-anchor:end" x="26" y="160">2</text>
<use xlink:href="#maf99ecaed9" x="33" y="124" style="stroke:#000000;stroke-width:0.8"/>
<text style="font-size:9px; text-anchor:end" x="26" y="127">3</text>
<use xlink:href="#maf99ecaed9" x="33" y="92" style="stroke:#000000;stroke-width:0.8"/>
<text style="font-size:9px; text-anchor:end" x="26" y="95">4</text>
<use xlink:href="#maf99ecaed9" x="33" y="59" style="stroke:#000000;stroke-width:0.8"/>
<text style="font-size:9px; text-anchor:end" x="26" y="63">5</text>
<use xlink:href="#maf99ecaed9" x="33" y="27" style="stroke:#000000;stroke-width:0.8"/>
<text style="font-size:9px; text-anchor:end" x="26" y="30">6</text>
<text style="font-size:9px; text-anchor:middle" x="14" y="121" transform="rotate(-90 14 121)">GMV (BRL m)</text>
<path d="M 33 221 L 33 21" style="fill:none;stroke:#000000;stroke-width:0.8;stroke-linejoin:miter;stroke-linecap:square"/>
<path d="M 33 221 L 390 221" style="fill:none;stroke:#000000;stroke-width:0.8;stroke-linejoin:miter;stroke-linecap:square"/>
<text style="font-size:10.8px; text-anchor:middle" x="211" y="15">Top 12 customer states: GMV vs delivery days</text>
<defs>
<path id="mcf4f2ef431" d="M 0 0 L 4 0" style="stroke:#000000;stroke-width:0.8"/>
</defs>
<use xlink:href="#mcf4f2ef431" x="390" y="221" style="stroke:#000000;stroke-width:0.8"/>
<text style="font-size:9px; text-anchor:start" x="397" y="224">0</text>
<use xlink:href="#mcf4f2ef431" x="390" y="185" style="stroke:#000000;stroke-width:0.8"/>
<text style="font-size:9px; text-anchor:start" x="397" y="188">5</text>
<use xlink:href="#mcf4f2ef431" x="390" y="149" style="stroke:#000000;stroke-width:0.8"/>
<text style="font-size:9px; text-anchor:start" x="397" y="152">10</text>
<use xlink:href="#mcf4f2ef431" x="390" y="113" style="stroke:#000000;stroke-width:0.8"/>
<text style="font-size:9px; text-anchor:start" x="397" y="116">15</text>
<use xlink:href="#mcf4f2ef431" x="390" y="77" style="stroke:#000000;stroke-width:0.8"/>
<text style="font-size:9px; text-anchor:start" x="397" y="80">20</text>
<use xlink:href="#mcf4f2ef431" x="390" y="41" style="stroke:#000000;stroke-width:0.8"/>
<text style="font-size:9px; text-anchor:start" x="397" y="44">25</text>
<text style="font-size:9px; text-anchor:middle;fill:#e07a5f" x="419" y="121" transform="rotate(-90 419 121)">avg delivery days</text>
<path d="M 60 158 L 88 110 L 115 134 L 143 110 L 170 134 L 198 113 L 225 81 L 253 127 L 280 108 L 308 107 L 335 88 L 363 67" style="fill:none;stroke:#e07a5f;stroke-width:1.5;stroke-linecap:square"/>
<defs>
<path id="m0228bfe5f9" d="M 0 2 C 0 2 1 1 1 1 C 1 1 2 0 2 0 C 2 0 1 -1 1 -1 C 1 -1 0 -2 0 -2 C 0 -2 -1 -1 -1 -1 C -1 -1 -2 0 -2 0 C -2 0 -1 1 -1 1 C -1 1 0 2 0 2 z" style="stroke:#e07a5f"/>
</defs>
<use xlink:href="#m0228bfe5f9" x="60" y="158" style="fill:#e07a5f;stroke:#e07a5f"/>
<use xlink:href="#m0228bfe5f9" x="88" y="110" style="fill:#e07a5f;stroke:#e07a5f"/>
<use xlink:href="#m0228bfe5f9" x="115" y="134" style="fill:#e07a5f;stroke:#e07a5f"/>
<use xlink:href="#m0228bfe5f9" x="143" y="110" style="fill:#e07a5f;stroke:#e07a5f"/>
<use xlink:href="#m0228bfe5f9" x="170" y="134" style="fill:#e07a5f;stroke:#e07a5f"/>
<use xlink:href="#m0228bfe5f9" x="198" y="113" style="fill:#e07a5f;stroke:#e07a5f"/>
<use xlink:href="#m0228bfe5f9" x="225" y="81" style="fill:#e07a5f;stroke:#e07a5f"/>
<use xlink:href="#m0228bfe5f9" x="253" y="127" style="fill:#e07a5f;stroke:#e07a5f"/>
<use xlink:href="#m0228bfe5f9" x="280" y="108" style="fill:#e07a5f;stroke:#e07a5f"/>
<use xlink:href="#m0228bfe5f9" x="308" y="107" style="fill:#e07a5f;stroke:#e07a5f"/>
<use xlink:href="#m0228bfe5f9" x="335" y="88" style="fill:#e07a5f;stroke:#e07a5f"/>
<use xlink:href="#m0228bfe5f9" x="363" y="67" style="fill:#e07a5f;stroke:#e07a5f"/>
<path d="M 33 221 L 33 21" style="fill:none;stroke:#000000;stroke-width:0.8;stroke-linejoin:miter;stroke-linecap:square"/>
<path d="M 33 221 L 390 221" style="fill:none;stroke:#000000;stroke-width:0.8;stroke-linejoin:miter;stroke-linecap:square"/>
</svg>
